<?xml version="1.0" encoding="UTF-8"?>
<svg id="Capa_1" data-name="Capa 1" xmlns="http://www.w3.org/2000/svg" width="32" height="32" xmlns:xlink="http://www.w3.org/1999/xlink" viewBox="0 0 32 32">
  <defs>
    <linearGradient id="Degradado_sin_nombre_13" data-name="Degradado sin nombre 13" x1="4.34" y1="17.54" x2="30.7" y2="17.54" gradientUnits="userSpaceOnUse">
      <stop offset="0" stop-color="#00dd8b"/>
      <stop offset="1" stop-color="#014f59"/>
    </linearGradient>
    <linearGradient id="Degradado_sin_nombre_13-2" data-name="Degradado sin nombre 13" x1="2.5" y1="15.09" x2="30.11" y2="15.09" xlink:href="#Degradado_sin_nombre_13"/>
    <linearGradient id="Degradado_sin_nombre_13-3" data-name="Degradado sin nombre 13" x1="1.3" y1="11.71" x2="30.11" y2="11.71" xlink:href="#Degradado_sin_nombre_13"/>
    <linearGradient id="Degradado_sin_nombre_13-4" data-name="Degradado sin nombre 13" x1="6.19" y1="19.99" x2="30.1" y2="19.99" xlink:href="#Degradado_sin_nombre_13"/>
    <linearGradient id="Degradado_sin_nombre_13-5" data-name="Degradado sin nombre 13" x1="12.3" y1="20.76" x2="28.86" y2="20.76" xlink:href="#Degradado_sin_nombre_13"/>
    <linearGradient id="Degradado_sin_nombre_13-6" data-name="Degradado sin nombre 13" x1="14.75" y1="20.91" x2="28.25" y2="20.91" xlink:href="#Degradado_sin_nombre_13"/>
    <linearGradient id="Degradado_sin_nombre_13-7" data-name="Degradado sin nombre 13" x1="10.78" y1="29.19" x2="21.83" y2="29.19" xlink:href="#Degradado_sin_nombre_13"/>
  </defs>
  <path d="M6.23,27.78c-.54.55-1.05.78-1.62,1.21s-.19,1.25.49,1.11c.34-.07,1.28-.8,1.57-1.05,2.44-2.12,2.84-5.25,2.27-8.29-.46-2.46-1.14-4.74-.9-7.31.41-4.49,4.55-7.83,9.04-7.18,3.17.46,5.75,3.05,6.2,6.23.15,1.06-.06,2.01.25,3.05.7,2.39,2.38,4.28,4.92,4.7.47.08,1.36.14,1.81.03s.6-.71.27-1.03c-.29-.28-.64-.14-.98-.13-2.3.02-3.93-1.4-4.7-3.48-.38-1.03-.21-1.74-.29-2.78-.34-4.03-3.49-7.34-7.51-7.83-4.78-.58-9.27,2.76-10.11,7.48-.5,2.84.21,5.56.76,8.31.49,2.45.35,5.09-1.47,6.96Z" style="fill: url(#Degradado_sin_nombre_13);"/>
  <path d="M22.78,6.64c1.68,1.66,2.79,3.95,2.99,6.32.07.79-.03,1.4.29,2.16.44,1.05,1.31,1.67,2.39,1.93.27.06.98.22,1.22.17.54-.11.62-.96.04-1.17-.69-.25-1.3-.1-1.95-.64-.92-.76-.69-1.67-.78-2.72-.3-3.21-2.14-6.26-4.75-8.1-5.12-3.62-12.18-2.39-15.8,2.7-2.27,3.19-2.32,6.47-1.89,10.24.3,2.63,1.12,4.82-.33,7.3-.34.59-.76,1.06-1.25,1.53-.08.08-.24.16-.31.25-.39.45-.05,1.12.55,1.04.2-.03.43-.24.58-.37,1.8-1.59,2.71-4.01,2.48-6.41-.37-3.82-1.5-7.42.17-11.15,2.87-6.39,11.32-8.04,16.34-3.08Z" style="fill: url(#Degradado_sin_nombre_13-2);"/>
  <path d="M16.49.06C9.68-.21,3.62,3.73,1.78,10.39c-1.18,4.26.12,8.21.72,12.43.13.77,1.16.71,1.23-.05-.29-2.18-.78-4.34-1.08-6.51-.6-4.43.78-8.63,4.08-11.64C11.11.62,18.15.16,23.08,3.42c3.36,2.22,5.43,5.82,5.77,9.84.02.3-.02.84.05,1.1.15.6,1.12.55,1.19-.08s-.07-1.71-.17-2.38C28.85,5.26,23.18.33,16.49.06Z" style="fill: url(#Degradado_sin_nombre_13-3);"/>
  <path d="M16.39,8.05c-2.62-.16-5.08,1.36-6.07,3.79-.77,1.9-.45,5.16-.25,7.21.34,3.32,1.48,5.89-.41,9.04-.58.96-1.49,1.92-2.5,2.44-.25.13-.73.24-.87.47-.24.39-.04.91.43.95.44.04,1.39-.53,1.76-.79,1.85-1.29,3.11-3.55,3.42-5.77.26-1.91-.24-3.57-.48-5.43s-.44-4.19-.33-6.08c.26-4.44,5.93-6.26,8.73-2.78,1.68,2.08.71,3.84,1.29,6.11.87,3.41,3.87,5.36,7.18,6,.31.06,1.1.22,1.37.14.63-.18.59-1.07-.1-1.21-.28-.05-.58-.06-.87-.11-2.83-.51-5.57-2.09-6.36-5.03-.34-1.28-.07-2.58-.29-3.9-.46-2.76-2.86-4.88-5.64-5.05Z" style="fill: url(#Degradado_sin_nombre_13-4);"/>
  <path d="M15.87,10.79c-1.7-.1-3.38,1.23-3.53,2.95-.23,2.51.68,5.59,1.84,7.8,2.27,4.31,5.94,7.74,10.74,8.99.22.06.67.2.88.21.68.01.89-.96.22-1.2-.57-.21-1.28-.32-1.89-.53-5.46-1.91-9.94-7.63-10.51-13.4-.11-1.1-.24-2.26.67-3.06,1.1-.96,2.84-.55,3.39.8.23.56.14,1.18.19,1.77.41,5.12,4.26,8.98,9.03,10.4.32.09,1.05.32,1.35.32.64,0,.86-.9.29-1.17-.25-.12-.84-.19-1.16-.28-4.43-1.25-8.01-4.8-8.31-9.55-.02-.27.02-.55,0-.82-.12-1.73-1.46-3.11-3.2-3.21Z" style="fill: url(#Degradado_sin_nombre_13-5);"/>
  <path d="M19.54,24.57c1.97,1.94,4.52,3.19,7.27,3.61.32.05.87.17,1.14.02.45-.26.38-.95-.11-1.11-.32-.1-.84-.12-1.19-.18-5.9-1.09-9.33-5.82-10.45-11.47-.09-.45-.11-.97-.21-1.39-.17-.73-1.19-.59-1.23.1-.03.55.26,1.7.39,2.27.73,3.03,2.16,5.95,4.39,8.15Z" style="fill: url(#Degradado_sin_nombre_13-6);"/>
  <path d="M15.82,26.43c-.19-.03-.38.01-.53.14l-4.38,4.38c-.43.59.29,1.28.87.87l3.82-3.79.67.77c1.12,1.04,2.42,1.92,3.77,2.64.22.12.92.5,1.12.52.59.04.91-.71.44-1.09-1.73-.94-3.98-2.04-5.13-3.7-.18-.27-.29-.66-.65-.72Z" style="fill: url(#Degradado_sin_nombre_13-7);"/>
</svg>